<svg width="225" height="225" viewBox="0 0 225 225" fill="none" xmlns="http://www.w3.org/2000/svg">
<path fill-rule="evenodd" clip-rule="evenodd" d="M45.3416 211.906C45.3416 211.906 32.7049 211.591 32.7049 194.595C32.7049 177.601 32.7049 91.3625 32.7049 91.3625C32.7049 91.3625 13.1775 75.2491 18.4707 59.1708C38.6949 -2.25671 186.308 -2.25671 206.529 59.1708C211.823 75.2491 192.295 91.3625 192.295 91.3625C192.295 91.3625 192.295 177.601 192.295 194.595C192.295 211.591 179.658 211.906 179.658 211.906H45.3416ZM53.2486 191.362H171.751C171.751 158.028 171.751 124.696 171.751 91.3625V81.6919L179.203 75.5308C181.236 73.8503 186.388 68.0665 186.856 65.1281C186.464 64.0161 185.991 62.9319 185.445 61.8853C174.053 40.0736 134.629 33.6433 112.5 33.6433C90.3713 33.6433 50.9467 40.0736 39.5553 61.8853C39.0094 62.9319 38.5364 64.0161 38.144 65.1281C38.6119 68.0665 43.7642 73.8503 45.7969 75.5308L53.2486 81.6919V91.3625C53.2486 124.696 53.2486 158.028 53.2486 191.362ZM49.4473 200.725H176.355C178.881 200.944 181.261 198.756 181.115 194.595C181.115 158.43 181.115 122.266 181.115 86.0996C187.025 81.2139 198.597 70.8364 195.908 62.6677C195.329 60.9041 194.602 59.1959 193.744 57.5506C180.355 31.915 138.49 24.2821 112.5 24.2821C86.5121 24.2821 44.6447 31.915 31.2583 57.5506C30.3979 59.1959 29.6709 60.9041 29.0922 62.6677C26.4029 70.8364 37.9754 81.2139 43.8875 86.0996C43.8875 122.266 43.8875 158.43 43.8875 194.595C43.8875 200.486 47.251 200.673 49.4473 200.725Z" fill="#B80C09"/>
</svg>
