<svg width="593" height="101" viewBox="0 0 593 101" fill="none" xmlns="http://www.w3.org/2000/svg">
<path fill-rule="evenodd" clip-rule="evenodd" d="M19.0427 97.3359C19.0427 97.3359 13.1099 97.1882 13.1099 89.2086C13.1099 81.2302 13.1099 40.7429 13.1099 40.7429C13.1099 40.7429 3.94215 33.1779 6.42721 25.6294C15.9222 -3.2098 85.2239 -3.2098 94.7177 25.6294C97.2027 33.1779 88.0349 40.7429 88.0349 40.7429C88.0349 40.7429 88.0349 81.2302 88.0349 89.2086C88.0349 97.1882 82.1022 97.3359 82.1022 97.3359H19.0427ZM22.7549 87.6909H78.39C78.39 72.0412 78.39 56.3926 78.39 40.7429V36.2027L81.8884 33.3102C82.8428 32.5212 85.2617 29.8058 85.4814 28.4263C85.2971 27.9042 85.0751 27.3952 84.8188 26.9038C79.4707 16.6636 60.9615 13.6447 50.5724 13.6447C40.1834 13.6447 21.6742 16.6636 16.3261 26.9038C16.0698 27.3952 15.8478 27.9042 15.6635 28.4263C15.8832 29.8058 18.3021 32.5212 19.2564 33.3102L22.7549 36.2027V40.7429C22.7549 56.3926 22.7549 72.0412 22.7549 87.6909ZM20.9702 92.087H80.5514C81.7373 92.1898 82.8546 91.1622 82.7861 89.2086C82.7861 72.2302 82.7861 55.2517 82.7861 38.272C85.5605 35.9783 90.9936 31.1062 89.731 27.2711C89.4594 26.4432 89.118 25.6412 88.7153 24.8688C82.4294 12.8332 62.7745 9.24974 50.5724 9.24974C38.3716 9.24974 18.7155 12.8332 12.4308 24.8688C12.0269 25.6412 11.6855 26.4432 11.4139 27.2711C10.1513 31.1062 15.5844 35.9783 18.36 38.272C18.36 55.2517 18.36 72.2302 18.36 89.2086C18.36 91.9748 19.9391 92.0622 20.9702 92.087Z" fill="#B80C09"/>
<path d="M136.129 25.303H130.095V77.6666H136.129V25.303ZM163.136 78.4848C173.772 78.4848 180.931 70.4053 180.931 58.2348C180.931 45.9621 173.772 37.8825 163.136 37.8825C152.499 37.8825 145.34 45.9621 145.34 58.2348C145.34 70.4053 152.499 78.4848 163.136 78.4848ZM163.136 73.0644C155.056 73.0644 151.374 66.1098 151.374 58.2348C151.374 50.3598 155.056 43.303 163.136 43.303C171.215 43.303 174.897 50.3598 174.897 58.2348C174.897 66.1098 171.215 73.0644 163.136 73.0644ZM201.699 78.5871C208.551 78.5871 212.131 74.9053 213.358 72.3484H213.665V77.6666H219.699V51.7916C219.699 39.3144 210.188 37.8825 205.176 37.8825C199.244 37.8825 192.494 39.928 189.426 47.0871L195.153 49.1325C196.483 46.2689 199.628 43.2007 205.381 43.2007C210.929 43.2007 213.665 46.1411 213.665 51.178V51.3825C213.665 54.2973 210.699 54.0416 203.54 54.9621C196.253 55.9081 188.301 57.5189 188.301 66.5189C188.301 74.1894 194.233 78.5871 201.699 78.5871ZM202.619 73.1666C197.813 73.1666 194.335 71.0189 194.335 66.8257C194.335 62.2234 198.528 60.7916 203.233 60.178C205.79 59.8712 212.642 59.1553 213.665 57.928V63.4507C213.665 68.3598 209.778 73.1666 202.619 73.1666ZM248.201 38.3939H239.406V34.4053C239.406 30.5189 241.042 28.4734 245.031 28.4734C246.769 28.4734 247.792 28.8825 248.406 29.0871L250.144 23.8712C249.224 23.4621 247.383 22.8484 244.417 22.8484C238.792 22.8484 233.372 26.2234 233.372 32.9734V38.3939H227.031V43.5075H233.372V77.6666H239.406V43.5075H248.201V38.3939ZM277.726 77.6666H283.555V71.6325H284.271C285.601 73.7803 288.158 78.4848 295.726 78.4848C305.544 78.4848 312.396 70.6098 312.396 58.1325C312.396 45.7575 305.544 37.8825 295.624 37.8825C287.953 37.8825 285.601 42.5871 284.271 44.6325H283.76V25.303H277.726V77.6666ZM283.658 58.0303C283.658 49.2348 287.544 43.303 294.908 43.303C302.578 43.303 306.362 49.7462 306.362 58.0303C306.362 66.4166 302.476 73.0644 294.908 73.0644C287.646 73.0644 283.658 66.928 283.658 58.0303ZM337.581 78.4848C348.217 78.4848 355.376 70.4053 355.376 58.2348C355.376 45.9621 348.217 37.8825 337.581 37.8825C326.945 37.8825 319.786 45.9621 319.786 58.2348C319.786 70.4053 326.945 78.4848 337.581 78.4848ZM337.581 73.0644C329.501 73.0644 325.82 66.1098 325.82 58.2348C325.82 50.3598 329.501 43.303 337.581 43.303C345.661 43.303 349.342 50.3598 349.342 58.2348C349.342 66.1098 345.661 73.0644 337.581 73.0644ZM367.068 92.2916C372.514 92.2916 376.374 89.4024 378.624 83.3939L395.346 38.4962L388.749 38.3939L377.908 69.6894H377.499L366.658 38.3939H360.113L374.636 77.8712L373.511 80.9394C371.363 86.82 368.602 87.3825 364.204 86.2575L362.67 91.5757C363.283 91.8825 365.022 92.2916 367.068 92.2916ZM441.068 38.3939H432.273V34.4053C432.273 30.5189 433.909 28.4734 437.898 28.4734C439.636 28.4734 440.659 28.8825 441.273 29.0871L443.011 23.8712C442.091 23.4621 440.25 22.8484 437.284 22.8484C431.659 22.8484 426.239 26.2234 426.239 32.9734V38.3939H419.898V43.5075H426.239V77.6666H432.273V43.5075H441.068V38.3939ZM449.525 77.6666H455.559V52.8144C455.559 47.4962 459.752 43.6098 465.479 43.6098C467.09 43.6098 468.752 43.9166 469.161 44.0189V37.8825C468.471 37.8314 466.886 37.7803 465.991 37.7803C461.286 37.7803 457.195 40.4394 455.764 44.3257H455.354V38.3939H449.525V77.6666ZM491.585 78.4848C499.562 78.4848 505.391 74.4962 507.232 68.5644L501.403 66.928C499.869 71.0189 496.315 73.0644 491.585 73.0644C484.502 73.0644 479.619 68.4876 479.337 60.0757H507.846V57.5189C507.846 42.8939 499.153 37.8825 490.971 37.8825C480.335 37.8825 473.278 46.2689 473.278 58.3371C473.278 70.4053 480.232 78.4848 491.585 78.4848ZM479.337 54.8598C479.747 48.749 484.068 43.303 490.971 43.303C497.516 43.303 501.71 48.2121 501.71 54.8598H479.337ZM544.843 47.1894C542.951 41.6155 538.707 37.8825 530.934 37.8825C522.65 37.8825 516.514 42.5871 516.514 49.2348C516.514 54.6553 519.735 58.2859 526.945 59.9734L533.491 61.5075C537.454 62.428 539.32 64.32 539.32 67.0303C539.32 70.4053 535.741 73.1666 530.116 73.1666C525.181 73.1666 522.087 71.0445 521.014 66.8257L515.286 68.2575C516.693 74.9308 522.19 78.4848 530.218 78.4848C539.346 78.4848 545.559 73.499 545.559 66.7234C545.559 61.2519 542.133 57.8001 535.127 56.0871L529.298 54.6553C524.644 53.5047 522.548 51.945 522.548 48.928C522.548 45.553 526.127 43.0984 530.934 43.0984C536.201 43.0984 538.374 46.0132 539.423 48.7234L544.843 47.1894ZM560.676 54.0416C560.676 47.1894 565.048 43.303 571.006 43.303C576.682 43.303 580.108 46.8825 580.108 53.1212V77.6666H586.142V52.7121C586.142 42.6126 580.773 37.8825 572.744 37.8825C566.557 37.8825 563.028 40.4649 561.188 44.5303H560.676V25.303H554.642V77.6666H560.676V54.0416Z" fill="#040F16"/>
</svg>
